<?xml version="1.0" encoding="UTF-8" standalone="no"?>
<!DOCTYPE svg PUBLIC "-//W3C//DTD SVG 1.1//EN" "http://www.w3.org/Graphics/SVG/1.1/DTD/svg11.dtd">
<svg width="100%" height="100%" viewBox="0 0 500 500" version="1.1" xmlns="http://www.w3.org/2000/svg" xmlns:xlink="http://www.w3.org/1999/xlink" xml:space="preserve" xmlns:serif="http://www.serif.com/" style="fill-rule:evenodd;clip-rule:evenodd;stroke-linejoin:round;stroke-miterlimit:2;">
    <g>
        <g transform="matrix(1.99098,0,0,1.99098,-17.9202,-479.054)">
            <path d="M132.594,282.97C132.594,282.97 117.471,288.063 115.242,288.859C113.013,289.655 107.919,289.655 104.735,289.974C101.551,290.292 89.134,294.591 89.134,294.591C89.134,294.591 77.778,298.252 76.504,299.95C75.231,301.648 77.354,305.469 77.354,305.469C77.354,305.469 80.113,313.11 84.783,316.506C89.452,319.902 92.636,319.69 92.636,319.69C92.636,319.69 96.669,326.906 107.495,323.936C107.919,320.751 114.499,322.237 114.499,322.237C114.499,322.237 114.924,340.916 111.952,345.798C108.98,350.68 108.556,356.623 108.556,356.623C108.556,356.623 114.446,365.75 128.772,361.451C143.101,357.153 157.428,365.272 157.428,365.272C157.428,365.272 157.906,338.846 156.792,334.229C155.677,329.613 164.114,304.779 164.114,304.779C164.114,304.779 179.715,306.371 188.789,304.938C197.863,303.505 199.137,297.774 198.022,294.591C196.908,291.406 188.63,285.755 188.63,285.755C188.63,285.755 192.451,281.219 193.485,279.069C194.52,276.92 192.53,275.408 191.894,275.408C192.212,273.259 190.142,273.02 189.744,272.781C190.142,270.632 186.561,270.791 186.561,270.791C186.163,268.643 182.74,268.562 182.581,269.598C182.421,270.632 182.979,272.064 182.581,272.86C182.183,273.656 179.237,277.079 179.158,278.671C179.078,280.264 179.795,285.039 180.272,287.348C180.75,289.655 180.591,292.76 180.591,292.76C180.591,292.76 171.437,289.258 170.402,289.258C169.368,289.258 162.257,285.198 158.967,284.35C155.677,283.5 146.231,281.165 146.231,281.165L132.594,282.97Z" style="fill:rgb(38,38,38);fill-rule:nonzero;"/>
        </g>
        <g transform="matrix(1.99098,0,0,1.99098,-17.9202,-479.054)">
            <path d="M141.986,355.243C141.986,355.243 153.767,382.942 157.906,389.311C162.045,395.678 163.955,404.911 166.184,411.598C168.413,418.283 176.372,452.669 177.486,454.579C173.188,459.833 163.318,458.56 163.318,458.56C161.408,451.236 162.204,447.894 161.089,444.709C159.975,441.525 152.812,435.636 150.742,430.063C148.672,424.492 138.962,402.364 138.962,402.364C138.962,402.364 128.933,391.009 123.414,384.641C117.895,378.272 111.103,365.537 113.65,356.41C116.197,347.283 141.986,355.243 141.986,355.243Z" style="fill:rgb(38,38,38);fill-rule:nonzero;"/>
        </g>
        <g transform="matrix(1.99098,0,0,1.99098,-17.9202,-479.054)">
            <path d="M175.417,453.094C175.417,453.094 179.556,461.266 181.785,463.282C184.013,465.298 188.577,469.013 190.381,471.241C192.185,473.47 187.409,475.911 182.899,475.593C178.389,475.274 174.886,471.984 172.764,469.861L170.641,467.739L170.641,468.27C170.641,468.27 166.502,466.572 165.441,465.404C164.379,463.282 164.698,456.277 164.592,455.429C164.486,454.579 175.417,453.094 175.417,453.094Z" style="fill:rgb(38,38,38);fill-rule:nonzero;"/>
        </g>
        <g transform="matrix(1.99098,0,0,1.99098,-17.9202,-479.054)">
            <path d="M154.828,359.807C154.828,359.807 153.979,382.094 149.097,392.919C144.215,403.744 140.182,409.263 139.545,410.536C138.909,411.81 104.523,448.317 104.099,448.954C99.428,451.926 92,440.464 92,440.464C92,440.464 96.245,435.795 99.428,431.974C102.613,428.153 110.042,416.267 111.952,413.083C113.862,409.899 121.292,399.499 121.928,397.801C122.565,396.103 128.296,380.396 128.296,379.759C128.296,379.122 127.234,350.892 127.234,350.892C127.234,350.892 150.371,351.741 154.828,359.807Z" style="fill:rgb(38,38,38);fill-rule:nonzero;"/>
        </g>
        <g transform="matrix(1.99098,0,0,1.99098,-17.9202,-479.054)">
            <path d="M101.233,446.407C101.127,447.15 100.49,455.641 98.473,460.734C96.457,465.829 95.608,470.817 95.396,471.772C95.183,472.728 91.15,472.728 89.559,469.861C87.966,466.996 89.346,461.371 89.559,458.188C89.771,455.004 90.195,451.714 90.195,451.714L88.801,451.396C88.801,451.396 87.436,447.681 87.754,444.072C90.195,441.95 95.077,439.403 95.077,439.403L101.233,446.407Z" style="fill:rgb(38,38,38);fill-rule:nonzero;"/>
        </g>
        <g transform="matrix(1.99098,0,0,1.99098,-17.9202,-479.054)">
            <path d="M146.816,278.737C146.816,278.737 146.445,275.226 147.847,272.603C149.248,269.98 152.931,266.68 153.578,261.514C154.009,258.078 151.381,255.19 148.417,254.3C146.625,248.156 136.667,249.709 134.776,250.326C131.533,251.383 129.429,252.1 128.832,253.354C128.156,254.77 128.884,255.5 128.884,255.5C127.526,257.982 126.25,262.962 126.521,264.121C126.792,265.28 124.265,268.617 123.582,269.468C122.899,270.319 124.466,270.936 125.283,271.516C126.101,272.097 125.537,273.007 125.345,273.391C125.152,273.773 125.978,274.38 126.102,274.474C126.225,274.567 126.902,274.556 126.902,274.556C126.902,274.556 126.058,275.22 126.198,275.705C126.338,276.191 126.977,276 126.899,276.728C126.822,277.457 126.295,279.144 127.445,279.912C128.593,280.681 132.378,280.149 133.03,280.38C133.392,280.508 132.186,284.215 132.063,284.713L147.802,282.331L146.816,278.737Z" style="fill:rgb(38,38,38);fill-rule:nonzero;"/>
        </g>
        <g transform="matrix(1.99098,0,0,1.99098,-17.9202,-479.054)">
            <path d="M115.002,289.758C115.002,289.758 110.226,290.113 109.724,288.896C109.222,287.677 107.261,283.61 107.111,282.04C106.961,280.469 107.19,278.509 107.19,278.509C108.287,277.958 108.877,275.827 108.591,274.264C108.304,272.7 107.442,270.617 106.637,270.439C105.832,270.262 105.41,271.134 105.445,271.009C105.466,268.496 103.706,264.95 100.855,262.9C98.004,260.852 95.202,261.874 94.928,261.889C91.967,260.889 87.287,263.819 85.397,267.073C83.505,270.327 85.417,277.063 86.861,278.993C85.493,279.063 85.861,280.005 87.323,282.089C88.784,284.173 90.545,284.961 90.978,284.481C91.732,284.57 93.603,287.127 94.172,287.885C94.742,288.643 95.86,293.869 95.375,295.534C94.89,297.198 93.137,298.332 93.137,298.332C93.137,298.332 100.844,299.088 105.975,298.53C111.107,297.974 115.002,289.758 115.002,289.758Z" style="fill:rgb(38,38,38);fill-rule:nonzero;"/>
        </g>
        <g transform="matrix(1.99098,0,0,1.99098,-17.9202,-479.054)">
            <path d="M80.98,265.67C80.149,268.669 81.906,271.773 84.905,272.604C87.904,273.436 91.009,271.678 91.84,268.679C92.67,265.68 90.913,262.575 87.914,261.744C84.915,260.913 81.811,262.671 80.98,265.67Z" style="fill:rgb(38,38,38);fill-rule:nonzero;"/>
        </g>
        <g transform="matrix(1.99098,0,0,1.99098,-17.9202,-479.054)">
            <path d="M92.185,284.713C94.772,289.548 92.424,292.415 92.424,292.415C92.424,292.415 71.835,293.688 66.316,295.599C60.797,297.509 59.736,301.436 61.116,304.832C62.496,308.229 83.721,307.697 87.754,309.82C91.469,311.942 105.478,327.013 107.707,332.107C109.936,337.201 100.119,344.896 99.641,356.198C99.163,367.501 102.666,368.624 102.188,375.227C101.71,381.828 97.89,389.151 96.616,396.951C95.342,404.752 95.077,405.123 94.334,405.973C93.591,406.821 83.191,414.675 78.946,419.981C74.7,425.288 70.668,438.023 68.014,440.04C65.361,442.056 62.496,443.436 62.496,443.436C62.496,443.436 58.993,442.269 56.977,443.436C54.96,444.604 53.475,446.514 52.944,447.999C52.414,449.485 47.532,454.792 47.532,454.792L48.487,456.808C48.487,456.808 52.201,450.971 53.581,452.032C54.96,453.094 54.43,458.612 53.793,462.539C53.156,466.466 54.855,468.906 56.34,471.454C57.826,474.001 61.647,475.274 62.39,474.638C63.132,474.001 61.328,467.633 62.708,463.601C64.087,459.567 72.047,451.502 74.7,446.938C77.354,442.375 87.86,431.125 89.452,428.578C91.044,426.03 103.037,417.753 106.752,413.72C110.466,409.687 119.381,388.037 119.381,388.037C119.381,388.037 130.418,401.672 133.39,405.361C136.362,409.05 134.451,412.021 135.088,423.06C135.725,434.097 140.395,451.077 140.395,454.261C140.395,457.444 135.3,460.151 136.574,463.335C137.847,466.519 139.121,465.245 139.121,469.861L139.121,474.479L141.827,474.8L141.827,469.065C141.827,469.065 144.534,468.429 147.399,470.34C150.265,472.25 152.334,473.211 156.314,474.8C160.293,476.389 167.616,476.554 167.935,474.8C168.253,473.046 165.069,472.091 163.159,471.295C161.249,470.499 157.269,466.653 155.995,464.357C154.722,462.062 153.13,456.702 150.901,453.094C148.672,449.485 148.036,436.113 148.354,427.835C148.672,419.557 150.105,405.07 148.354,398.862C146.603,392.653 129.091,362.066 128.296,360.019C131.002,348.716 130.205,324.678 128.614,319.743C127.022,314.808 130.365,311.146 130.047,308.44C129.729,305.734 126.545,300.321 126.545,300.321C126.545,300.321 119.699,296.183 115.72,294.591C111.74,292.999 109.321,288.223 107.745,285.994L106.168,283.766C106.168,283.766 90.531,281.624 92.185,284.713Z" style="fill:rgb(38,38,38);fill-rule:nonzero;"/>
        </g>
        <g transform="matrix(1.99098,0,0,1.99098,-17.9202,-479.054)">
            <path d="M184.226,277.663C184.226,277.663 174.355,280.423 167.139,281.06C159.922,281.696 155.358,282.545 150.052,283.766C144.746,284.986 138.696,287.002 132.647,287.957C126.598,288.913 121.166,288.276 117.727,289.231C114.287,290.187 110.042,292.415 110.042,292.415C110.042,292.415 114.817,304.302 115.242,304.832C115.667,305.362 121.716,305.362 121.716,305.362C121.716,305.362 126.492,301.224 133.496,298.57C140.5,295.917 144.109,296.13 151.007,294.644C157.906,293.158 167.106,291.396 173.506,288.382C179.907,285.368 184.226,284.562 184.226,284.562L184.226,277.663Z" style="fill:rgb(38,38,38);fill-rule:nonzero;"/>
        </g>
        <g transform="matrix(1.99098,0,0,1.99098,-17.9202,-479.054)">
            <path d="M101.233,358.546C101.233,358.546 99.869,362.863 99.984,363.529C100.1,364.195 101.952,372.762 98.484,380.39C95.016,388.019 84.441,397.033 79.933,396.34C78.933,403.275 86.209,405.009 92,402.755C97.79,400.501 99.177,404.488 102.818,407.436C106.459,410.383 109.695,410.281 116.485,406.258C123.276,402.234 119.115,403.286 127.957,405.361C136.799,407.436 146.339,409.328 149.197,406.908C152.056,404.488 156.39,402.408 159.337,403.622C162.284,404.835 166.965,401.541 168.873,398.074C163.845,397.9 158.121,390.099 154.828,380.217C151.536,370.335 146.508,363.92 143.214,359.412C139.919,354.904 134.892,341.208 134.198,341.208C133.505,341.208 101.233,358.546 101.233,358.546Z" style="fill:rgb(38,38,38);fill-rule:nonzero;"/>
        </g>
    </g>
</svg>
